<svg t="1591669301881" class="icon" viewBox="0 0 1024 1024" version="1.1" xmlns="http://www.w3.org/2000/svg" p-id="8050" width="48" height="48"><path d="M79.36 916.48h343.04v51.2H79.36z" fill="#515359" p-id="8051"></path><path d="M550.4 916.48h376.32v51.2H550.4z" fill="#515359" p-id="8052"></path><path d="M629.76 158.72l215.04 215.04L373.76 844.8l-215.04-215.04L629.76 158.72z m0 0" fill="#515359" p-id="8053"></path><path d="M716.8 74.24l215.04 215.04-64 64-215.04-215.04L716.8 74.24z m0 0" fill="#515359" p-id="8054"></path><path d="M138.24 652.8l215.04 215.04L51.2 952.32l87.04-299.52z m0 0" fill="#515359" p-id="8055"></path><path d="M798.72 71.68L931.84 204.8c23.04 23.04 20.48 58.88-2.56 81.92-23.04 23.04-61.44 25.6-81.92 2.56l-133.12-133.12c-23.04-20.48-23.04-58.88 2.56-81.92 23.04-23.04 58.88-25.6 81.92-2.56z m0 0" fill="#515359" p-id="8056"></path></svg>
